<?xml version="1.0" encoding="utf-8"?>
<!-- Generator: Adobe Illustrator 26.3.0, SVG Export Plug-In . SVG Version: 6.00 Build 0)  -->
<svg version="1.1" id="Layer_1" xmlns="http://www.w3.org/2000/svg" xmlns:xlink="http://www.w3.org/1999/xlink" x="0px" y="0px"
	 viewBox="0 0 8 5" style="enable-background:new 0 0 8 5;" xml:space="preserve">
<style type="text/css">
	.st0{fill:none;stroke:#1D1C1D;stroke-width:2;stroke-linecap:round;stroke-linejoin:round;}
	.st1{fill:#097EFF;}
	.st2{fill:#ECB12F;}
</style>
<path class="st0" d="M7,1L4,4L1,1"/>
<path d="M570.6,279.6l1.2-2.9c1.3,1,3.1,1.5,4.8,1.5c1.3,0,2.1-0.5,2.1-1.3c0-2.1-7.7-0.5-7.8-5.7c0-2.7,2.4-4.7,5.7-4.7
	c2,0,4,0.5,5.4,1.6l-1.1,2.9c-1.3-0.8-2.9-1.4-4.5-1.4c-1,0-1.7,0.5-1.7,1.1c0,2.1,7.8,0.9,7.8,6c0,2.7-2.3,4.7-5.6,4.7
	C574.5,281.4,572.3,280.9,570.6,279.6 M619.2,275.8c-0.6,1.1-1.8,1.8-3.1,1.8c-2,0-3.5-1.6-3.5-3.6c0-2,1.6-3.6,3.5-3.6
	c1.3,0,2.5,0.7,3.1,1.8l3.4-1.9c-1.3-2.3-3.7-3.8-6.5-3.8c-4.1,0-7.4,3.3-7.4,7.4c0,4.1,3.3,7.4,7.4,7.4c2.8,0,5.2-1.5,6.5-3.8
	L619.2,275.8z M584.8,281.2h4.2v-20.8h-4.2L584.8,281.2z M624.7,260.4v20.8h4.2v-6.2l5,6.2h5.4l-6.4-7.4l5.9-6.9h-5.2l-4.8,5.7
	v-12.2H624.7z M602.1,266.9v1.7c-0.7-1.2-2.4-2-4.2-2c-3.7,0-6.7,3.3-6.7,7.4s2.9,7.5,6.7,7.5c1.8,0,3.5-0.8,4.2-2v1.7h4.2v-14.3
	H602.1z M602.1,275.8c-0.6,1-1.9,1.8-3.3,1.8c-2,0-3.5-1.6-3.5-3.6c0-2,1.6-3.6,3.5-3.6c1.4,0,2.7,0.8,3.3,1.8V275.8z"/>
<path class="st1" d="M548.2,259.9c-1.4,0-2.5,1.1-2.5,2.5c0,1.4,1.1,2.5,2.5,2.5c0,0,0,0,0,0h2.5v-2.5
	C550.7,261,549.6,259.9,548.2,259.9 M548.2,266.6h-6.6c-1.4,0-2.5,1.1-2.5,2.5c0,1.4,1.1,2.5,2.5,2.5h6.6c1.4,0,2.5-1.1,2.5-2.5
	C550.7,267.7,549.6,266.6,548.2,266.6"/>
<path class="st1" d="M563.9,269.1c0-1.4-1.1-2.5-2.5-2.5c-1.4,0-2.5,1.1-2.5,2.5v2.5h2.5C562.8,271.6,563.9,270.4,563.9,269.1
	 M557.3,269.1v-6.7c0-1.4-1.1-2.5-2.5-2.5c-1.4,0-2.5,1.1-2.5,2.5v6.6c0,1.4,1.1,2.5,2.5,2.5C556.2,271.6,557.3,270.4,557.3,269.1"
	/>
<path class="st2" d="M554.8,284.9c1.4,0,2.5-1.1,2.5-2.5c0-1.4-1.1-2.5-2.5-2.5h-2.5v2.5C552.3,283.7,553.4,284.9,554.8,284.9
	 M554.8,278.2h6.6c1.4,0,2.5-1.1,2.5-2.5c0-1.4-1.1-2.5-2.5-2.5h-6.6c-1.4,0-2.5,1.1-2.5,2.5C552.3,277.1,553.4,278.2,554.8,278.2
	C554.8,278.2,554.8,278.2,554.8,278.2"/>
<g>
	<path class="st2" d="M539.1,275.7c0,1.4,1.1,2.5,2.5,2.5c0,0,0,0,0,0c1.4,0,2.5-1.1,2.5-2.5v-2.5h-2.5
		C540.2,273.2,539.1,274.3,539.1,275.7 M545.7,275.7v6.6c0,1.4,1.1,2.5,2.5,2.5c1.4,0,2.5-1.1,2.5-2.5v-6.7c0-1.4-1.1-2.5-2.5-2.5
		c0,0,0,0,0,0C546.8,273.2,545.7,274.3,545.7,275.7"/>
</g>
</svg>
